<svg width="628" height="190" viewBox="0 0 628 190" fill="none" xmlns="http://www.w3.org/2000/svg">
<path d="M625.933 51.1582C624.205 49.4341 621.876 48.6545 618.93 48.7894C615.985 48.9393 612.754 49.7939 609.238 51.3681C605.722 52.9423 602.16 55.0563 598.584 57.7099C594.993 60.3636 591.732 63.2272 588.786 66.3006C585.841 69.3891 583.407 72.6125 581.468 75.9708C579.53 79.3441 578.568 82.4475 578.568 85.3111C578.568 86.9602 578.884 88.7593 579.485 90.6634C579.259 90.8883 579.019 91.0832 578.794 91.3231C576.344 93.7668 573.189 96.5105 569.312 99.5989C565.435 102.687 561.242 105.791 556.719 108.939C552.196 112.088 547.523 115.101 542.714 117.965C537.906 120.828 533.413 123.197 529.25 125.056C525.088 126.915 521.391 128.175 518.16 128.819C514.93 129.464 512.676 129.074 511.383 127.635C509.52 125.776 509.445 122.657 511.173 118.295C512.901 113.932 515.621 109.089 519.363 103.797C521.662 106.241 524.712 107.92 528.514 108.849C532.316 109.779 536.298 109.029 540.46 106.6C542.895 105.311 545.885 103.272 549.401 100.483C552.917 97.6949 556.359 94.5764 559.74 91.1431C563.106 87.7099 566.021 84.1267 568.455 80.3935C570.89 76.6754 572.332 73.1672 572.768 69.8688C573.204 66.5705 572.873 63.8568 571.806 61.6979C570.724 59.554 569.402 57.8299 567.824 56.5405C566.246 55.2512 564.623 54.3216 562.985 53.7519C561.332 53.1822 560.085 52.8974 559.214 52.8974C556.764 52.8974 553.534 54.0818 549.521 56.4506C545.494 58.8194 541.227 61.8928 536.704 65.6859C532.181 69.479 527.627 73.7369 523.029 78.4745C519.167 82.4475 515.621 86.4205 512.375 90.3935C512.06 90.7084 511.729 91.0082 511.413 91.368C507.101 95.6709 502.262 100.064 496.883 104.576C491.503 109.089 486.334 113.062 481.375 116.495C476.416 119.929 472.224 122.477 468.782 124.127C465.341 125.776 463.403 125.746 462.967 124.022C462.531 122.298 462.937 119.659 464.154 116.076C465.371 112.492 467.205 108.34 469.639 103.617C472.073 98.8943 474.943 93.8118 478.249 88.3545C481.555 82.9123 485.071 77.47 488.798 72.0277C492.104 71.0232 496.221 69.3141 501.18 66.8703C506.139 64.4416 510.978 61.608 515.711 58.3846C520.445 55.1612 524.757 51.7279 528.634 48.0698C532.511 44.4116 535.021 40.7984 536.178 37.2152C536.749 35.2062 536.854 32.7775 536.508 29.9139C536.148 27.0503 535.351 24.2917 534.134 21.6381C532.917 18.9844 531.264 16.7655 529.175 14.9814C527.086 13.1973 524.757 12.2977 522.173 12.2977C519.874 12.4477 516.748 14.4417 512.811 18.3097C508.859 22.1778 504.546 27.1553 499.888 33.2422C495.215 39.3292 490.451 46.1058 485.567 53.542C483.133 57.2602 480.774 60.9483 478.52 64.5765C478.114 64.6515 477.708 64.7414 477.288 64.8164C472.193 65.7459 464.83 66.4356 455.213 66.8553C454.642 63.7069 453.17 61.0982 450.795 59.0143C448.421 56.9453 445.371 56.6155 441.644 58.0398V57.8299C440.487 55.9708 439.315 54.6065 438.083 53.7519C436.865 52.8974 435.528 52.3876 434.101 52.2527C432.658 52.1177 431.2 52.2527 429.683 52.6875C428.18 53.1222 426.557 53.617 424.844 54.1867C421.538 55.3411 417.631 58.0248 413.108 62.2377C408.585 66.4655 404.167 71.3381 399.869 76.8553C396.939 80.6034 394.249 84.4715 391.755 88.4445C390.673 89.2691 389.576 90.2286 388.464 91.353C387.022 92.7923 384.978 94.7263 382.333 97.1551C379.673 99.5989 376.773 102.133 373.618 104.786C370.462 107.44 367.231 110.124 363.925 112.837C360.619 115.566 357.569 117.965 354.774 120.034C351.979 122.118 349.605 123.767 347.666 124.981C345.728 126.196 344.541 126.585 344.105 126.166C343.534 125.596 343.774 123.947 344.856 121.218C345.938 118.504 347.471 115.206 349.485 111.338C351.498 107.47 353.827 103.317 356.487 98.8793C359.147 94.4415 361.761 90.1836 364.346 86.0907C366.931 82.0127 369.305 78.3995 371.454 75.2361C373.603 72.0877 375.18 69.8688 376.187 68.5795C377.194 67.1552 377.615 65.3861 377.48 63.3171C377.329 61.2482 376.758 59.3141 375.751 57.515C374.745 55.7309 373.527 54.2917 372.085 53.2122C370.642 52.1327 369.215 51.8929 367.772 52.4626C367.051 52.7474 365.789 53.7219 364 55.3561C362.197 57.0053 360.093 59.1192 357.644 61.6979C355.195 64.2766 352.505 67.1402 349.575 70.2886C346.629 73.437 343.729 76.6005 340.859 79.7489C333.962 87.3351 326.358 95.8658 318.033 105.311C321.76 99.8688 325.216 94.7863 328.372 90.0637C331.092 86.0607 333.616 82.2526 335.915 78.6694C338.214 75.0862 339.582 72.7924 340.003 71.7879C340.438 70.7834 340.468 69.3591 340.108 67.485C339.747 65.626 339.146 63.7669 338.275 61.8928C337.418 60.0338 336.261 58.5345 334.833 57.3801C333.391 56.2407 331.813 55.8809 330.1 56.3006C328.943 56.5855 327.305 57.665 325.141 59.524C322.992 61.3831 320.543 63.6769 317.823 66.4056C315.103 69.1342 312.233 72.1777 309.213 75.536C306.192 78.9093 303.217 82.2976 300.272 85.7459C297.327 89.1791 294.532 92.5225 291.872 95.7308C289.212 98.9542 286.958 101.713 285.095 104.007C287.529 99.419 290.294 94.7713 293.39 90.0337C296.47 85.3111 299.49 80.9033 302.436 76.8253C305.381 72.7474 308.101 69.1642 310.625 66.0757C313.135 63.0023 314.968 60.6635 316.125 59.0892C317.132 57.7999 317.162 56.6904 316.23 55.7609C315.299 54.8314 314.006 54.1117 312.353 53.617C310.7 53.1222 308.942 52.9423 307.079 53.0773C305.216 53.2272 303.773 53.7219 302.766 54.5765C300.903 56.1507 298.529 58.9843 295.659 63.0622C292.788 67.1402 289.738 71.8328 286.507 77.1402C283.276 82.4475 279.971 88.0247 276.605 93.9018C276.394 94.2766 276.184 94.6364 275.973 95.0112C274.336 96.4505 272.502 97.9797 270.459 99.5989C266.582 102.687 262.389 105.791 257.866 108.939C253.343 112.088 248.67 115.101 243.861 117.965C239.053 120.828 234.56 123.197 230.397 125.056C226.235 126.915 222.538 128.175 219.307 128.819C216.077 129.464 213.823 129.074 212.53 127.635C210.667 125.776 210.592 122.657 212.32 118.295C214.048 113.932 216.768 109.089 220.509 103.797C222.809 106.241 225.859 107.92 229.661 108.849C233.463 109.779 237.445 109.029 241.607 106.6C244.041 105.311 247.032 103.272 250.548 100.483C254.064 97.6949 257.505 94.5764 260.887 91.1431C264.253 87.7099 267.168 84.1267 269.602 80.3935C272.036 76.6754 273.479 73.1672 273.915 69.8688C274.351 66.5705 274.02 63.8568 272.953 61.6979C271.871 59.554 270.549 57.8299 268.971 56.5405C267.393 55.2512 265.77 54.3216 264.132 53.7519C262.479 53.1822 261.232 52.8974 260.361 52.8974C257.911 52.8974 254.68 54.0818 250.668 56.4506C246.641 58.8194 242.373 61.8928 237.85 65.6859C233.327 69.479 228.774 73.7369 224.176 78.4745C219.578 83.1971 215.415 87.9348 211.689 92.6574C207.962 97.38 204.912 101.893 202.537 106.196C200.163 110.498 198.991 114.082 198.991 116.945C198.991 121.248 199.667 124.936 201.035 128.01C202.402 131.098 204.085 133.602 206.099 135.536C208.112 137.47 210.336 138.909 212.771 139.839C215.205 140.768 217.429 141.233 219.443 141.233C223.605 141.233 228.519 139.689 234.199 136.615C239.864 133.542 245.83 129.569 252.066 124.696C256.739 121.053 261.443 117.14 266.191 112.942C264.012 117.05 262.104 120.678 260.481 123.737C258.542 127.395 257.355 129.644 256.934 130.513C256.213 131.953 256.153 133.452 256.724 135.026C257.295 136.6 258.092 137.965 259.098 139.104C260.105 140.258 261.217 141.008 262.434 141.353C263.651 141.713 264.628 141.323 265.334 140.169C267.063 137.455 270.038 133.647 274.275 128.774C278.513 123.902 283.427 118.639 289.032 112.987C294.637 107.335 300.557 101.563 306.793 95.6859C313.045 89.8088 318.965 84.5165 324.555 79.7938C323.548 81.3681 322.181 83.482 320.468 86.1357C318.74 88.7893 316.846 91.6529 314.758 94.7263C312.669 97.8148 310.475 100.993 308.191 104.292C305.892 107.59 303.773 110.633 301.835 113.422C299.896 116.211 298.213 118.609 296.771 120.618C295.328 122.627 294.396 123.992 293.976 124.696C293.254 125.851 292.969 127.455 293.119 129.524C293.254 131.608 293.66 133.422 294.306 134.996C294.952 136.57 295.884 137.575 297.101 138.01C298.318 138.444 299.791 137.515 301.519 135.221C302.526 133.797 304.389 131.563 307.124 128.564C309.844 125.551 313.015 122.223 316.606 118.579C320.197 114.921 323.999 111.173 328.011 107.305C332.023 103.437 335.87 99.8238 339.537 96.4505C343.203 93.0922 346.464 90.2586 349.334 87.9647C352.204 85.6709 354.293 84.2466 355.57 83.6619C351.694 88.0997 348.177 92.5524 345.022 96.9902C342.151 100.723 339.462 104.801 336.952 109.239C334.443 113.677 332.82 117.695 332.099 121.263C331.663 123.707 331.813 126.136 332.534 128.564C333.256 131.008 334.368 133.152 335.87 135.011C337.373 136.87 339.101 138.384 341.04 139.524C342.978 140.678 344.871 141.248 346.75 141.248C347.892 141.248 349.8 140.214 352.46 138.13C355.12 136.061 358.125 133.377 361.506 130.079C364.872 126.78 368.388 123.167 372.055 119.224C375.721 115.281 379.238 111.458 382.604 107.725C382.634 107.695 382.649 107.665 382.679 107.65C382.438 108.549 382.228 109.449 382.063 110.304C381.341 113.737 381.236 117.29 381.732 120.933C382.243 124.591 383.235 127.92 384.752 130.918C386.255 133.932 388.344 136.39 391.004 138.324C393.663 140.258 396.789 141.218 400.365 141.218C403.235 141.218 406.466 140.243 410.058 138.324C413.649 136.39 417.301 133.782 421.042 130.483C424.769 127.185 428.435 123.362 432.027 118.984C435.618 114.621 438.954 110.064 442.035 105.341C445.115 100.618 447.775 95.8208 449.999 90.9482C452.223 86.0757 453.771 81.428 454.627 76.9753C457.783 76.9753 461.089 76.6904 464.53 76.1207C467.34 75.6559 470.015 75.0712 472.644 74.4115C472.449 74.7264 472.254 75.0562 472.073 75.3711C467.911 82.4625 464.319 89.0142 461.299 95.0262C458.279 101.038 456.34 105.626 455.484 108.774C454.191 113.362 453.65 117.665 453.876 121.668C454.086 125.686 454.702 129.194 455.709 132.193C456.716 135.206 458.008 137.56 459.586 139.284C461.164 141.008 462.742 141.713 464.319 141.428C466.183 141.143 468.737 139.854 471.968 137.56C475.199 135.266 478.715 132.432 482.517 129.074C486.319 125.716 490.226 122.058 494.253 118.115C495.62 116.78 496.928 115.476 498.235 114.172C498.025 115.146 497.904 116.076 497.904 116.93C497.904 121.233 498.581 124.921 499.948 127.995C501.315 131.083 502.998 133.587 505.012 135.521C507.026 137.455 509.25 138.894 511.684 139.824C514.118 140.753 516.342 141.218 518.356 141.218C522.518 141.218 527.432 139.674 533.112 136.6C538.777 133.527 544.743 129.554 550.979 124.681C557.23 119.809 563.541 114.441 569.928 108.564C574.12 104.711 578.132 100.918 581.994 97.1851C580.747 103.512 574.21 115.086 564.999 127.755C564.248 126.765 563.707 125.806 563.361 124.906C562.925 123.767 562.58 122.687 562.279 121.683C561.994 120.678 561.423 119.959 560.551 119.539C559.695 119.104 558.688 119.464 557.531 120.618C556.389 121.773 555.382 123.227 554.51 125.026C553.654 126.825 553.008 128.789 552.572 130.933C552.136 133.077 552.211 135.011 552.782 136.735C553.293 138.249 554.014 139.539 554.946 140.633C550.363 146.136 545.464 151.593 540.415 156.645C531.91 165.176 511.308 180.213 499.858 180.528C495.74 180.648 492.675 179.239 491.383 176.135C491.623 176.24 491.999 176.315 492.435 176.375C496.342 177.17 500.744 177.005 505.147 175.701C516.748 172.252 523.976 162.162 521.286 153.182C518.596 144.202 507.026 139.704 495.425 143.167C491.097 144.456 487.386 146.66 484.576 149.389C484.005 149.869 483.464 150.363 482.983 150.858C464.68 169.929 482.427 188.474 493.907 189.809C516.042 192.402 540.851 168.204 558.703 143.437C559.364 143.752 560.07 144.022 560.837 144.246C564.924 145.386 569.492 145.281 574.511 143.917C579.53 142.552 584.414 140.019 589.162 136.285C593.896 132.567 597.562 127.77 600.147 121.893C602.16 117.17 602.987 113.047 602.626 109.539C602.266 106.031 601.409 102.882 600.042 100.079C598.674 97.2901 597.141 94.7413 595.413 92.4475C593.685 90.1536 592.468 87.7998 591.747 85.3561C595.473 84.6364 599.501 83.2871 603.798 81.2781C608.111 79.2691 611.552 77.3351 614.137 75.476C616.286 74.0517 618.374 72.2226 620.388 70.0038C622.401 67.7849 624.009 65.536 625.226 63.2422C626.444 60.9483 627.195 58.7294 627.48 56.5855C627.766 54.4416 627.27 52.6425 625.978 51.2182L625.933 51.1582ZM533.443 86.3905C537.109 82.5225 540.58 79.1642 543.886 76.2856C547.192 73.422 550.168 71.2781 552.827 69.8388C555.487 68.4146 557.38 68.0547 558.538 68.7594C559.259 69.3291 559.214 70.5885 558.432 72.5225C557.636 74.4565 556.283 76.7054 554.345 79.2841C552.407 81.8628 550.107 84.4715 547.448 87.1252C544.788 89.7788 542.023 92.1027 539.153 94.1117C536.283 96.1206 533.443 97.5899 530.648 98.5194C527.853 99.449 525.373 99.419 523.225 98.4145C526.38 94.2616 529.791 90.2436 533.458 86.3755L533.443 86.3905ZM508.243 45.1313C511.609 40.9783 514.629 37.4401 517.289 34.5016C519.949 31.5631 522.248 29.4191 524.186 28.0548C526.125 26.6905 527.447 26.3007 528.168 26.8704C529.31 28.0248 529.25 29.8089 527.958 32.2377C526.666 34.6815 524.547 37.3951 521.602 40.4086C518.656 43.4221 515.11 46.5256 510.948 49.7489C506.785 52.9723 502.472 55.8659 498.025 58.4446C501.466 53.7219 504.877 49.2842 508.258 45.1163L508.243 45.1313ZM234.53 86.3905C238.196 82.5225 241.667 79.1642 244.973 76.2856C248.279 73.422 251.254 71.2781 253.914 69.8388C256.574 68.4146 258.467 68.0547 259.624 68.7594C260.346 69.3291 260.3 70.5885 259.519 72.5225C258.723 74.4565 257.37 76.7054 255.432 79.2841C253.493 81.8628 251.194 84.4715 248.534 87.1252C245.875 89.7788 243.11 92.1027 240.24 94.1117C237.37 96.1206 234.53 97.5899 231.735 98.5194C228.94 99.449 226.46 99.419 224.311 98.4145C227.467 94.2616 230.878 90.2436 234.545 86.3755L234.53 86.3905ZM436.535 88.5345C433.59 93.1222 430.329 97.6649 426.737 102.178C423.146 106.69 419.449 110.918 415.648 114.861C411.846 118.804 408.284 122.028 404.994 124.531C401.688 127.035 398.742 128.654 396.158 129.359C393.573 130.079 391.71 129.359 390.553 127.215C389.396 125.071 389.261 122.268 390.117 118.834C390.974 115.401 392.551 111.638 394.85 107.56C397.15 103.482 399.915 99.2541 403.145 94.8913C406.376 90.5285 409.817 86.3755 413.484 82.4325C417.15 78.4895 420.802 74.9063 424.468 71.6829C428.135 68.4595 431.471 65.9858 434.476 64.2766C433.319 66.2856 433.364 68.4595 434.581 70.8283C435.799 73.1972 438.699 74.8763 443.297 75.8808C441.719 79.7489 439.45 83.9767 436.52 88.5494L436.535 88.5345ZM587.81 120.978C586.367 124.846 584.008 127.995 580.702 130.438C577.396 132.882 574.105 133.377 570.799 131.938C569.492 131.398 568.41 130.828 567.493 130.214C575.638 117.14 581.243 105.281 582.791 98.7593C583.377 100.094 583.978 101.458 584.594 102.837C586.022 106.061 587.179 109.209 588.035 112.298C588.892 115.386 588.817 118.28 587.825 120.993L587.81 120.978ZM607.84 65.7609C604.099 69.0592 600.943 71.6679 598.359 73.602C595.774 75.536 593.685 77.0802 592.107 78.2196C592.243 77.9348 592.363 77.575 592.438 77.1402C592.513 76.7054 592.693 76.3606 592.979 76.0607C595.128 72.3426 597.682 69.1792 600.628 66.6005C603.573 64.0218 606.112 62.1927 608.276 61.1282C610.425 60.0488 611.687 59.8689 612.048 60.5885C612.409 61.3081 611.011 63.0323 607.855 65.7459L607.84 65.7609ZM178.585 66.1807C181.545 64.6515 185.227 62.5825 189.599 59.9588C193.987 57.3351 198.375 54.4116 202.778 51.1732C207.181 47.9348 211.148 44.3666 214.709 40.4836C218.255 36.6005 220.615 32.6275 221.787 28.5346C222.568 25.761 222.658 23.1073 222.042 20.5736C221.426 18.0399 220.344 15.716 218.796 13.6321C217.264 11.5481 215.385 9.794 213.176 8.38471C210.967 6.97541 208.623 5.91095 206.129 5.2063C197.789 2.83749 189.088 1.47318 180.012 1.11336C170.951 0.738547 162.1 1.26328 153.475 2.67258C144.85 4.08187 136.66 6.31575 128.906 9.3892C121.152 12.4627 114.255 16.2857 108.214 20.8584C106.591 22.1328 105.044 23.4971 103.601 24.9814C102.143 26.4506 101.167 28.1448 100.626 30.0338C100.01 32.2227 100.04 34.3067 100.731 36.3157C101.422 38.3247 102.789 39.614 104.848 40.1987C106.742 40.7385 108.905 40.7984 111.325 40.3786C113.729 39.9588 116.013 39.2992 118.177 38.4146C120.326 37.5301 122.189 36.5106 123.782 35.3861C125.36 34.2617 126.291 33.2572 126.532 32.3727C126.697 31.788 126.577 31.3682 126.186 31.0983C125.796 30.8284 125.45 30.6485 125.149 30.5736C124.128 30.2887 123.211 30.1838 122.384 30.2587C121.573 30.3487 120.792 30.2887 120.07 30.0788C118.898 29.749 118.462 29.0743 118.748 28.0548C120.1 24.9664 122.309 22.3277 125.39 20.1238C128.47 17.9199 132.062 16.1358 136.164 14.7715C140.266 13.4072 144.669 12.4027 149.358 11.758C154.046 11.1133 158.659 10.7235 163.212 10.5886C167.75 10.4537 171.988 10.5886 175.91 10.9934C179.832 11.3982 183.108 11.9679 185.737 12.7175C188.217 13.4222 190.681 14.3967 193.086 15.6261C195.505 16.8704 197.579 18.3247 199.307 19.9889C201.05 21.668 202.297 23.632 203.078 25.9109C203.86 28.1898 203.845 30.7085 203.063 33.4821C202.147 36.6905 200.374 39.704 197.759 42.5076C195.144 45.3112 192.184 47.9049 188.908 50.2887C185.617 52.6725 182.206 54.7864 178.69 56.6155C175.159 58.4596 172.108 60.0338 169.509 61.3531C167.69 60.5285 166.188 59.9438 165.031 59.614L161.95 58.7444C159.906 58.1597 157.908 57.68 155.954 57.2901C154.016 56.9003 151.972 56.5555 149.838 56.2707C153.775 51.8629 157.878 46.9154 162.13 41.4131C166.383 35.9109 169.509 29.659 171.507 22.6575C171.838 21.4881 171.417 20.7385 170.245 20.4087C169.373 20.1538 168.261 20.1688 166.924 20.4087C165.587 20.6635 164.234 20.9934 162.852 21.3832C161.469 21.788 160.252 22.1778 159.185 22.5976C158.118 23.0024 157.397 23.3172 157.021 23.5271C156.42 23.9919 155.729 24.4566 154.948 24.9514C154.181 25.4461 153.685 26.0608 153.475 26.7805C151.852 32.4776 149.358 37.605 146.007 42.1777C142.656 46.7504 139.019 51.1732 135.127 55.4161C132.197 55.686 129.026 56.1657 125.585 56.8554C122.144 57.545 118.913 58.5195 115.863 59.7789C112.812 61.0383 110.138 62.6574 107.854 64.6065C105.554 66.5555 104.022 68.9243 103.225 71.6979C102.639 73.7369 102.97 75.6409 104.202 77.425C105.434 79.1941 107.598 80.5135 110.664 81.383L111.986 81.7579C105.164 89.6139 98.4017 97.425 91.6697 105.221C84.9377 113.017 78.5513 121.188 72.4804 129.719C70.7674 127.965 69.3849 125.881 68.333 123.452C67.2812 121.023 67.0858 118.639 67.762 116.301C68.303 114.411 69.2046 113.002 70.4969 112.103C71.7742 111.203 72.5856 110.169 72.9162 108.999C73.2318 107.35 72.5105 106.286 70.7523 105.776C68.7087 105.191 66.4998 105.281 64.1556 106.031C61.8114 106.78 59.5874 107.935 57.4837 109.464C55.3799 110.993 53.5166 112.837 51.8787 114.981C50.2408 117.125 49.1137 119.284 48.4826 121.473C47.7764 123.947 47.7613 126.39 48.4225 128.789C49.0837 131.188 50.1055 133.407 51.503 135.461C52.9005 137.515 54.5384 139.359 56.4468 141.008C58.3552 142.642 60.2486 144.052 62.127 145.221C61.3756 146.735 60.3688 148.624 59.0915 150.873C57.8143 153.122 56.9127 155.191 56.3717 157.08C55.7105 159.419 56.2515 160.828 58.0096 161.338C59.1817 161.668 60.6694 161.698 62.4876 161.428C64.3058 161.158 66.079 160.633 67.7921 159.854C69.5201 159.074 71.0679 158.174 72.4804 157.155C73.8779 156.136 74.7495 155.026 75.0801 153.872L75.8314 151.248C77.1087 151.758 78.431 152.252 79.7985 152.732C81.1659 153.197 82.5033 153.617 83.8257 153.992C93.7734 156.81 104.563 157.815 116.178 157.005C127.794 156.195 138.899 153.677 149.523 149.434C160.132 145.191 169.539 139.389 177.728 132.013C185.903 124.636 191.478 115.776 194.423 105.431C199.111 88.9542 193.822 75.8808 178.555 66.1957L178.585 66.1807ZM140.041 67.4251C141.258 67.62 142.37 67.8448 143.392 68.1447L149.538 69.8838C145.255 71.0382 140.762 71.8179 136.059 72.2226L140.026 67.4251H140.041ZM121.889 67.0203C122.054 66.4356 122.64 66.1657 123.662 66.2257C124.669 66.2706 125.345 66.2706 125.69 66.2107L122.745 69.8688C122.535 69.494 122.324 68.9993 122.099 68.3846C121.874 67.7699 121.813 67.3201 121.889 67.0203ZM175.594 110.858C173.1 119.614 168.832 126.54 162.807 131.608C156.781 136.69 149.974 140.318 142.385 142.507C134.797 144.696 126.908 145.656 118.688 145.371C110.468 145.086 102.85 143.962 95.8171 141.968C93.4729 141.308 91.309 140.573 89.3255 139.779C87.3419 138.984 85.3584 138.145 83.4049 137.275C85.8393 133.707 88.4088 130.094 91.1137 126.45C93.8185 122.807 96.914 118.864 100.4 114.651C103.886 110.438 107.793 105.746 112.106 100.573C116.419 95.401 121.438 89.449 127.148 82.7024C138.613 81.8478 149.733 79.1642 160.507 74.6364C167.991 79.434 172.905 84.8163 175.249 90.7683C177.593 96.7203 177.698 103.407 175.579 110.858H175.594ZM55.1696 59.1942C57.123 56.8104 58.9413 54.3366 60.6393 51.7579C62.3223 49.1792 63.7649 46.5555 64.9821 43.9019C66.1992 41.2482 67.0407 38.6995 67.5066 36.2857C69.2346 36.2857 71.0379 36.1358 72.9162 35.8209C73.5023 35.716 74.0733 35.611 74.6443 35.4911C74.5842 35.626 74.5091 35.746 74.4339 35.8809C73.5774 37.635 73.1416 39.2992 73.1416 40.8584C73.1416 42.1927 73.4872 43.677 74.1935 45.3112C74.8997 46.9453 75.6361 48.6545 76.4325 50.4086C77.2139 52.1627 77.845 53.8869 78.3108 55.566C78.7767 57.2452 78.7466 58.8344 78.1906 60.3186C77.4092 62.4326 76.1169 64.1417 74.3137 65.476C72.5105 66.8104 70.7073 67.0802 68.9041 66.3006C67.5667 65.7609 66.62 65.1312 66.0189 64.4266C65.4329 63.7219 65.0271 63.0623 64.7867 62.4326C64.5463 61.8029 64.3509 61.2182 64.2007 60.6784C64.0504 60.1387 63.7348 59.7489 63.254 59.509C62.7881 59.2692 62.2321 59.4641 61.616 60.0937C60.9849 60.7234 60.444 61.518 59.9781 62.4925C59.5123 63.467 59.1517 64.5465 58.9263 65.7159C58.6858 66.8853 58.7309 67.9498 59.0465 68.8793C59.7527 70.9933 61.2254 72.3576 63.4493 72.9873C65.6883 73.6169 68.1677 73.557 70.9026 72.8074C73.6375 72.0577 76.3123 70.6784 78.8969 68.6394C81.4815 66.6155 83.4801 63.9918 84.8926 60.7834C85.8393 58.5195 86.3051 56.5405 86.3051 54.8614C86.3051 53.1822 86.0496 51.638 85.5387 50.2287C85.0278 48.8194 84.3817 47.545 83.6003 46.4206C82.8189 45.2962 82.1276 44.1567 81.5416 43.0173C80.9555 41.8779 80.5498 40.7534 80.3094 39.614C80.069 38.4896 80.3094 37.2152 81.0157 35.8059L81.2561 35.3412C83.6754 34.9514 85.9895 34.2917 88.1834 33.3472C90.3774 32.4176 92.1956 31.3532 93.6382 30.1838C95.0807 29.0143 96.0425 27.8 96.5233 26.5556C96.9891 25.3112 96.7187 24.1718 95.6968 23.1523C94.675 22.1328 93.4128 21.653 91.88 21.683C90.3473 21.728 88.7695 22.1478 87.1165 22.9724C85.4786 23.797 83.8106 24.8614 82.1276 26.1958C80.7301 27.3052 79.4979 28.5496 78.3709 29.8989C75.7112 30.2887 72.2099 30.5736 67.8522 30.7685C67.5366 29.0443 66.7402 27.62 65.4479 26.4956C64.1556 25.3562 62.4876 25.1913 60.459 25.9709V25.8509C59.8279 24.8314 59.1817 24.0968 58.5205 23.6171C57.8593 23.1523 57.123 22.8824 56.3416 22.7925C55.5602 22.7175 54.7638 22.7925 53.9374 23.0324C53.1109 23.2722 52.2393 23.5421 51.2926 23.8569C49.4894 24.4866 47.3556 25.9559 44.8912 28.2497C42.4268 30.5586 40.0225 33.2122 37.6633 36.2257C36.0705 38.2647 34.5978 40.3786 33.2454 42.5525C32.6444 42.9723 32.0583 43.4821 31.4422 44.1417C29.098 46.4806 26.4533 48.8944 23.5081 51.3531C20.5778 53.8119 17.7528 55.9858 15.048 57.8599C12.3431 59.7339 10.0591 61.1282 8.18072 62.0278C6.30237 62.9273 5.2505 62.9123 5.01007 61.9678C4.6945 60.6335 5.19039 58.4596 6.48269 55.4011C7.775 52.3576 9.54816 48.8794 11.8322 44.9663L12.7789 44.1417C13.2448 43.677 14.3117 42.8074 15.9496 41.563C17.5875 40.3187 19.526 38.8494 21.765 37.1703C24.004 35.4911 26.3632 33.632 28.8726 31.608C31.3821 29.5841 33.7413 27.5451 35.9803 25.5211C38.2193 23.4821 40.1578 21.5331 41.7957 19.659C43.4336 17.785 44.5005 16.1058 44.9663 14.6216C45.2819 13.5271 45.342 12.1928 45.1467 10.6336C44.9513 9.07436 44.5155 7.57511 43.8544 6.12084C43.1932 4.68157 42.2916 3.46718 41.1495 2.49267C39.9925 1.50316 38.7152 1.00841 37.3177 1.00841C36.0705 1.08337 34.3574 2.17782 32.2086 4.29176C30.0598 6.4057 27.7005 9.11934 25.161 12.4327C22.6215 15.761 20.0068 19.4492 17.3471 23.5121C14.6873 27.5751 12.2229 31.5331 9.95389 35.4011C7.68484 39.2692 5.73135 42.8374 4.0784 46.1208C2.44048 49.4041 1.37358 51.9079 0.907749 53.617C0.201489 56.1207 -0.0840206 58.4596 0.0211671 60.6485C0.141382 62.8374 0.471971 64.7564 1.01294 66.3906C1.56893 68.0398 2.26016 69.3291 3.13172 70.2586C3.98824 71.2032 4.8598 71.593 5.71633 71.428C6.73815 71.2781 8.12062 70.5735 9.87875 69.3141C11.6369 68.0697 13.5603 66.5255 15.634 64.6814C17.7077 62.8524 19.8415 60.8584 22.0354 58.6994C24.2294 56.5555 26.303 54.4866 28.2565 52.4926C28.3166 52.4326 28.3617 52.3876 28.4218 52.3276C28.2115 53.0473 28.0311 53.7519 27.9109 54.4266C27.5202 56.3006 27.4601 58.2347 27.7306 60.2287C28.0011 62.2227 28.5571 64.0368 29.3685 65.6859C30.195 67.3201 31.322 68.6694 32.7796 69.7339C34.2222 70.7834 35.9352 71.3231 37.8887 71.3231C39.4515 71.3231 41.2096 70.7984 43.1782 69.7339C45.1316 68.6844 47.1302 67.2601 49.1739 65.461C51.2025 63.662 53.201 61.578 55.1696 59.1942ZM24.6802 25.5061C27.2197 22.0728 29.5939 19.0444 31.7878 16.4207C33.9817 13.812 35.8751 11.788 37.483 10.3937C39.0909 8.98441 40.1277 8.51964 40.5935 8.98441C41.2998 9.61409 40.9993 10.8585 39.707 12.7325C38.4147 14.6066 36.5964 16.8405 34.2522 19.4192C31.908 21.9979 29.2032 24.7565 26.1528 27.68C23.1023 30.6035 20.1571 33.4071 17.3471 36.0608C19.6913 32.4626 22.1406 28.9544 24.6952 25.5211L24.6802 25.5061ZM40.4733 62.2527C38.6701 63.617 37.0622 64.5015 35.6648 64.8913C34.2522 65.2811 33.2304 64.8913 32.6143 63.7219C31.9832 62.5525 31.908 61.0233 32.3739 59.1492C32.8397 57.2752 33.7113 55.2212 34.9585 53.0023C36.2057 50.7684 37.7234 48.4746 39.4816 46.0908C41.2397 43.707 43.118 41.4431 45.1166 39.2992C47.1152 37.1553 49.1137 35.1912 51.1123 33.4371C53.1109 31.683 54.9291 30.3337 56.5821 29.3892C55.9509 30.4836 55.981 31.683 56.6422 32.9574C57.3034 34.2467 58.8962 35.1613 61.4057 35.716C60.5491 37.8299 59.3169 40.1238 57.7091 42.6275C56.1012 45.1313 54.328 47.605 52.3595 50.0638C50.406 52.5225 48.3774 54.8314 46.3037 56.9753C44.23 59.1192 42.2916 60.8883 40.4884 62.2527H40.4733Z" fill="url(#paint0_linear_1848_736)"/>
<defs>
<linearGradient id="paint0_linear_1848_736" x1="313.766" y1="189.944" x2="313.766" y2="1.00841" gradientUnits="userSpaceOnUse">
<stop stop-color="#C5A266"/>
<stop offset="1" stop-color="#956429"/>
</linearGradient>
</defs>
</svg>
